<svg width="33" height="33" viewBox="0 0 33 33" fill="none" xmlns="http://www.w3.org/2000/svg">
<path d="M28.7634 18.5779C28.4101 18.5779 28.0407 18.4655 27.6875 18.3852C26.9726 18.2254 26.2697 18.0161 25.5838 17.7589C24.8389 17.4879 24.02 17.502 23.2848 17.7984C22.5496 18.0949 21.95 18.6528 21.6014 19.3648L21.2481 20.1034C19.6886 19.219 18.2478 18.1398 16.9605 16.8918C15.7126 15.6045 14.6334 14.1638 13.7489 12.6042L14.4876 12.267C15.1995 11.9184 15.7574 11.3188 16.0539 10.5836C16.3503 9.8484 16.3644 9.02952 16.0934 8.28456C15.8384 7.5925 15.6292 6.88441 15.4671 6.16487C15.3868 5.81159 15.3226 5.44225 15.2744 5.08897C15.0794 3.95785 14.487 2.93353 13.6038 2.20047C12.7205 1.46741 11.6046 1.07377 10.4569 1.09046H5.6234C4.94454 1.08957 4.27315 1.23217 3.65325 1.50891C3.03334 1.78565 2.47893 2.19029 2.02635 2.69629C1.56439 3.21602 1.22041 3.8296 1.01806 4.49487C0.815708 5.16014 0.759773 5.86133 0.854101 6.55027C1.72701 13.2339 4.78068 19.4429 9.54162 24.2144C14.3131 28.9753 20.522 32.029 27.2057 32.9019C27.4142 32.9178 27.6235 32.9178 27.832 32.9019C29.0161 32.9036 30.1595 32.4692 31.0436 31.6814C31.5496 31.2289 31.9543 30.6745 32.231 30.0546C32.5077 29.4347 32.6503 28.7633 32.6495 28.0844V23.2669C32.6408 22.1574 32.2494 21.0848 31.5413 20.2305C30.8333 19.3761 29.852 18.7924 28.7634 18.5779ZM29.5502 28.2129C29.5497 28.4369 29.5023 28.6584 29.411 28.8631C29.3197 29.0678 29.1866 29.251 29.0203 29.4012C28.8443 29.5615 28.6348 29.6807 28.4071 29.7502C28.1794 29.8196 27.939 29.8375 27.7035 29.8026C21.711 29.02 16.142 26.2891 11.854 22.0304C7.5624 17.7388 4.80769 12.1504 4.01758 6.13275C3.98269 5.89723 4.00062 5.6569 4.07005 5.42916C4.13948 5.20142 4.25869 4.99197 4.41903 4.81598C4.57098 4.64761 4.75686 4.51333 4.96445 4.422C5.17204 4.33066 5.39662 4.28433 5.6234 4.28605H10.4409C10.8121 4.27698 11.175 4.39683 11.4678 4.6252C11.7605 4.85357 11.9651 5.17635 12.0467 5.5386C12.0467 5.97217 12.1912 6.4218 12.2876 6.85537C12.4732 7.69661 12.7201 8.52314 13.0263 9.32835L10.7781 10.3882C10.3917 10.5656 10.0914 10.889 9.94308 11.2875C9.78247 11.6784 9.78247 12.1169 9.94308 12.5079C12.2542 17.4583 16.2335 21.4376 21.1839 23.7487C21.5748 23.9093 22.0133 23.9093 22.4043 23.7487C22.8028 23.6004 23.1262 23.3001 23.3036 22.9136L24.3152 20.6655C25.1437 20.9676 25.9913 21.2143 26.8524 21.4042C27.2699 21.5005 27.7196 21.5808 28.1531 21.645C28.5154 21.7266 28.8382 21.9312 29.0665 22.224C29.2949 22.5168 29.4148 22.8797 29.4057 23.2509L29.5502 28.2129ZM20.0758 0.913818C19.7065 0.913818 19.3211 0.913818 18.9518 0.913818C18.5259 0.950019 18.1318 1.15392 17.8563 1.48067C17.5807 1.80742 17.4462 2.23025 17.4824 2.65614C17.5186 3.08203 17.7225 3.4761 18.0493 3.75165C18.376 4.0272 18.7989 4.16167 19.2248 4.12547H20.0758C22.6312 4.12547 25.0819 5.14058 26.8888 6.94748C28.6957 8.75439 29.7108 11.2051 29.7108 13.7604C29.7108 14.0495 29.7108 14.3225 29.7108 14.6115C29.6752 15.0351 29.809 15.4556 30.083 15.7807C30.3569 16.1058 30.7486 16.309 31.1721 16.3458H31.3006C31.7026 16.3474 32.0905 16.1982 32.3879 15.9277C32.6852 15.6571 32.8702 15.2849 32.9064 14.8845C32.9064 14.5152 32.9064 14.1298 32.9064 13.7604C32.9064 10.3561 31.5551 7.09092 29.1494 4.68218C26.7437 2.27343 23.4802 0.918074 20.0758 0.913818V0.913818ZM23.2875 13.7604C23.2875 14.1863 23.4567 14.5948 23.7578 14.8959C24.059 15.1971 24.4674 15.3663 24.8933 15.3663C25.3192 15.3663 25.7277 15.1971 26.0288 14.8959C26.33 14.5948 26.4991 14.1863 26.4991 13.7604C26.4991 12.0569 25.8224 10.4231 24.6178 9.21846C23.4132 8.01386 21.7794 7.33712 20.0758 7.33712C19.6499 7.33712 19.2415 7.50631 18.9404 7.80746C18.6392 8.10861 18.47 8.51706 18.47 8.94295C18.47 9.36884 18.6392 9.77729 18.9404 10.0784C19.2415 10.3796 19.6499 10.5488 20.0758 10.5488C20.9276 10.5488 21.7445 10.8871 22.3468 11.4894C22.9491 12.0917 23.2875 12.9086 23.2875 13.7604Z" fill="#B3C8DD"/>
</svg>
