<svg width="33" height="33" viewBox="0 0 33 33" fill="none" xmlns="http://www.w3.org/2000/svg">
<path d="M16.4999 0.913818C12.6046 0.91398 8.83643 2.3002 5.86965 4.82444C2.90287 7.34869 0.931079 10.8462 0.307098 14.6913C-0.316883 18.5363 0.447661 22.4779 2.46393 25.8108C4.4802 29.1437 7.61662 31.6504 11.312 32.8824C12.1322 33.026 12.4398 32.5339 12.4398 32.1032C12.4398 31.7136 12.4193 30.4217 12.4193 29.0478C8.2976 29.8065 7.23129 28.0431 6.9032 27.1203C6.53914 26.2229 5.96202 25.4276 5.22172 24.8031C4.64756 24.4955 3.82732 23.7368 5.2012 23.7164C5.7258 23.7733 6.22895 23.9558 6.66801 24.2485C7.10707 24.5412 7.4691 24.9354 7.72343 25.3978C7.9478 25.8008 8.2495 26.1557 8.61124 26.4419C8.97298 26.7282 9.38765 26.9403 9.83149 27.066C10.2753 27.1917 10.7396 27.2286 11.1977 27.1746C11.6559 27.1206 12.0988 26.9767 12.5013 26.7512C12.5723 25.9172 12.944 25.1374 13.5471 24.5571C9.89705 24.147 6.08297 22.732 6.08297 16.4573C6.05991 14.8269 6.66154 13.2495 7.76445 12.0485C7.26292 10.6315 7.32161 9.07648 7.92849 7.7013C7.92849 7.7013 9.30233 7.27066 12.4398 9.38278C15.1241 8.64453 17.9578 8.64453 20.6421 9.38278C23.7795 7.25017 25.1534 7.7013 25.1534 7.7013C25.7604 9.07646 25.8191 10.6315 25.3174 12.0485C26.4237 13.2474 27.0258 14.8262 26.9989 16.4573C26.9989 22.7525 23.1643 24.147 19.5143 24.5571C19.9058 24.9539 20.2073 25.4303 20.3984 25.954C20.5894 26.4776 20.6656 27.0363 20.6216 27.592C20.6216 29.7861 20.6011 31.5496 20.6011 32.1033C20.6011 32.5339 20.9087 33.0465 21.7289 32.8825C25.4178 31.6404 28.5452 29.1278 30.5529 25.7932C32.5605 22.4586 33.3178 18.519 32.6895 14.6777C32.0612 10.8364 30.0882 7.34342 27.1227 4.82225C24.1572 2.30108 20.3923 0.915844 16.4999 0.913818V0.913818Z" fill="#B2C7DB"/>
</svg>
