<svg width="38" height="38" viewBox="0 0 21 21" fill="none" xmlns="http://www.w3.org/2000/svg">
<path d="M19.71 9.12007L11.88 1.29007C11.7485 1.15781 11.5826 1.06495 11.4011 1.022C11.2197 0.979046 11.0298 0.987703 10.8529 1.04699C10.6761 1.10628 10.5194 1.21384 10.4005 1.35752C10.2816 1.5012 10.2052 1.67527 10.18 1.86007L9.45 7.00007L7.45 9.00007L7.12 8.81007C6.90469 8.70538 6.65896 8.68142 6.42748 8.74253C6.196 8.80364 5.99413 8.94577 5.85854 9.14309C5.72296 9.34041 5.66267 9.57982 5.68863 9.81783C5.71459 10.0558 5.82507 10.2766 6 10.4401L4.85 11.6101L4.52 11.4201C4.30523 11.3214 4.06247 11.3021 3.83477 11.3654C3.60708 11.4287 3.40916 11.5706 3.27614 11.766C3.14312 11.9613 3.08358 12.1975 3.10808 12.4325C3.13258 12.6676 3.23955 12.8864 3.41 13.0501L2.24 14.2101L1.92 14.0001C1.80587 13.934 1.67978 13.8911 1.549 13.8739C1.41822 13.8567 1.28534 13.8656 1.158 13.8999C1.03066 13.9343 0.911378 13.9936 0.807031 14.0743C0.702684 14.155 0.61533 14.2555 0.55 14.3701C0.437065 14.576 0.400223 14.8151 0.445935 15.0455C0.491646 15.2759 0.616992 15.4828 0.8 15.6301L0.29 16.1401C0.197397 16.2339 0.125814 16.3464 0.0799999 16.4701C0.028759 16.5903 0.00157999 16.7194 0 16.8501V20.0001C0 20.2653 0.105357 20.5196 0.292893 20.7072C0.48043 20.8947 0.734784 21.0001 1 21.0001H4.13C4.26068 20.9985 4.38978 20.9713 4.51 20.9201C4.63364 20.8743 4.74613 20.8027 4.84 20.7101L6.54 19.0001L6.87 19.1901C6.98354 19.2566 7.10909 19.3001 7.23946 19.318C7.36983 19.3359 7.50246 19.3279 7.62973 19.2945C7.757 19.261 7.87643 19.2028 7.98115 19.1231C8.08587 19.0434 8.17384 18.9438 8.24 18.8301C8.35674 18.6242 8.39669 18.3836 8.35275 18.1511C8.3088 17.9185 8.18381 17.7091 8 17.5601L9.17 16.4001L9.5 16.5901C9.64946 16.6748 9.81821 16.7195 9.99 16.7201C10.1814 16.7028 10.3638 16.6308 10.5153 16.5126C10.6669 16.3943 10.7811 16.235 10.8444 16.0535C10.9077 15.872 10.9174 15.6761 10.8723 15.4893C10.8272 15.3025 10.7292 15.1326 10.59 15.0001L11.76 13.8401L12.09 14.0301C12.2395 14.1148 12.4082 14.1595 12.58 14.1601C12.7842 14.1564 12.9824 14.0903 13.1479 13.9707C13.3135 13.851 13.4384 13.6836 13.5059 13.4908C13.5734 13.2981 13.5803 13.0892 13.5256 12.8925C13.4709 12.6957 13.3573 12.5203 13.2 12.3901L13.99 11.6001L19.14 10.8701C19.3251 10.8438 19.4991 10.7661 19.6423 10.6459C19.7854 10.5257 19.892 10.3678 19.95 10.1901C20.0186 10.0077 20.0324 9.80933 19.9897 9.61924C19.9471 9.42915 19.8499 9.25566 19.71 9.12007ZM3.72 19.0001H2V17.2801L2.57 16.7101L4.75 18.0001L3.72 19.0001ZM6.21 16.5001L4 15.2501L5.14 14.1101L7.31 15.3601L6.21 16.5001ZM8.82 13.9001L6.64 12.6401L7.79 11.5001L10 12.7501L8.82 13.9001ZM11.43 11.2901L9.25 10.0001L10.39 8.86007L12.11 10.5801L11.43 11.2901ZM13.88 9.55007L11.45 7.12007L11.88 4.12007L16.88 9.12007L13.88 9.55007Z" fill="#B3C8DD"/>
</svg>
