<svg width="35" height="33" viewBox="0 0 35 33" fill="none" xmlns="http://www.w3.org/2000/svg">
<path d="M31.3064 20.1138C30.882 20.1138 30.4751 20.2824 30.175 20.5824C29.8749 20.8825 29.7064 21.2895 29.7064 21.7138V28.1138C29.7064 28.5382 29.5378 28.9451 29.2377 29.2452C28.9377 29.5452 28.5307 29.7138 28.1064 29.7138H5.70637C5.28203 29.7138 4.87506 29.5452 4.575 29.2452C4.27494 28.9451 4.10637 28.5382 4.10637 28.1138V12.7698L13.5144 22.1938C14.4144 23.0927 15.6344 23.5976 16.9064 23.5976C18.1784 23.5976 19.3984 23.0927 20.2984 22.1938L22.9224 19.5698C23.2237 19.2685 23.3929 18.8599 23.3929 18.4338C23.3929 18.0077 23.2237 17.5991 22.9224 17.2978C22.6211 16.9965 22.2125 16.8273 21.7864 16.8273C21.3603 16.8273 20.9517 16.9965 20.6504 17.2978L18.0264 19.9218C17.7273 20.215 17.3252 20.3792 16.9064 20.3792C16.4876 20.3792 16.0855 20.215 15.7864 19.9218L6.36237 10.5138H16.9064C17.3307 10.5138 17.7377 10.3452 18.0377 10.0452C18.3378 9.74513 18.5064 9.33816 18.5064 8.91382C18.5064 8.48947 18.3378 8.08251 18.0377 7.78245C17.7377 7.48239 17.3307 7.31382 16.9064 7.31382H5.70637C4.43333 7.31382 3.21243 7.81953 2.31226 8.71971C1.41209 9.61988 0.906372 10.8408 0.906372 12.1138V28.1138C0.906372 29.3869 1.41209 30.6078 2.31226 31.5079C3.21243 32.4081 4.43333 32.9138 5.70637 32.9138H28.1064C29.3794 32.9138 30.6003 32.4081 31.5005 31.5079C32.4007 30.6078 32.9064 29.3869 32.9064 28.1138V21.7138C32.9064 21.2895 32.7378 20.8825 32.4377 20.5824C32.1377 20.2824 31.7307 20.1138 31.3064 20.1138ZM34.0424 9.37782C33.8936 9.22785 33.7167 9.10882 33.5217 9.02759C33.3267 8.94636 33.1176 8.90454 32.9064 8.90454C32.6952 8.90454 32.486 8.94636 32.291 9.02759C32.0961 9.10882 31.9191 9.22785 31.7704 9.37782L29.7064 11.4578V2.51382C29.7064 2.08947 29.5378 1.68251 29.2377 1.38245C28.9377 1.08239 28.5307 0.913818 28.1064 0.913818C27.682 0.913818 27.2751 1.08239 26.975 1.38245C26.6749 1.68251 26.5064 2.08947 26.5064 2.51382V11.4578L24.4424 9.37782C24.2932 9.22864 24.1161 9.1103 23.9212 9.02956C23.7263 8.94883 23.5173 8.90727 23.3064 8.90727C22.8803 8.90727 22.4717 9.07653 22.1704 9.37782C22.0212 9.527 21.9029 9.7041 21.8221 9.89902C21.7414 10.0939 21.6998 10.3028 21.6998 10.5138C21.6998 10.9399 21.8691 11.3485 22.1704 11.6498L26.9704 16.4498C27.1225 16.5955 27.302 16.7097 27.4984 16.7858C27.6899 16.8705 27.897 16.9142 28.1064 16.9142C28.3158 16.9142 28.5228 16.8705 28.7144 16.7858C28.9108 16.7097 29.0902 16.5955 29.2424 16.4498L34.0424 11.6498C34.1923 11.5011 34.3114 11.3241 34.3926 11.1291C34.4738 10.9342 34.5156 10.725 34.5156 10.5138C34.5156 10.3026 34.4738 10.0935 34.3926 9.8985C34.3114 9.70352 34.1923 9.52656 34.0424 9.37782V9.37782Z" fill="#B3C8DD"/>
</svg>
