<svg width="33" height="33" viewBox="0 0 33 33" fill="none" xmlns="http://www.w3.org/2000/svg">
<path d="M16.5156 0.913818C13.3511 0.913818 10.2577 1.8522 7.62651 3.6103C4.99532 5.36841 2.94456 7.86726 1.73356 10.7909C0.522558 13.7145 0.205704 16.9316 0.823068 20.0353C1.44043 23.139 2.96428 25.9899 5.20192 28.2275C7.43956 30.4652 10.2905 31.989 13.3942 32.6064C16.4979 33.2237 19.7149 32.9069 22.6386 31.6959C25.5622 30.4849 28.061 28.4341 29.8191 25.8029C31.5772 23.1717 32.5156 20.0783 32.5156 16.9138C32.5158 14.8126 32.1021 12.732 31.2981 10.7907C30.494 8.84939 29.3155 7.08549 27.8297 5.59972C26.344 4.11395 24.5801 2.9354 22.6388 2.13139C20.6975 1.32738 18.6168 0.913644 16.5156 0.913818V0.913818ZM21.6028 25.1578C21.543 25.3071 21.4518 25.4419 21.3356 25.5531C21.2193 25.6644 21.0807 25.7495 20.9288 25.8027C20.777 25.856 20.6156 25.8762 20.4553 25.8619C20.2951 25.8477 20.1397 25.7994 19.9996 25.7202L15.6562 22.3452L12.8685 24.917C12.8038 24.9648 12.7281 24.9956 12.6484 25.0064C12.5687 25.0173 12.4876 25.008 12.4125 24.9793L12.9469 20.1978L12.964 20.2113L12.9749 20.1169C12.9749 20.1169 20.7909 13.0009 21.1093 12.6978C21.4316 12.3954 21.3253 12.3298 21.3253 12.3298C21.3436 11.9609 20.7469 12.3298 20.7469 12.3298L10.3908 18.9922L6.07805 17.5234C6.07805 17.5234 5.41565 17.2858 5.35325 16.7634C5.28765 16.245 6.09963 15.9634 6.09963 15.9634L23.2468 9.1514C23.2468 9.1514 24.6564 8.52337 24.6564 9.56342L21.6028 25.1578Z" fill="#B3C8DD"/>
</svg>
