<svg width="33" height="33" viewBox="0 0 33 33" fill="none" xmlns="http://www.w3.org/2000/svg">
<path d="M32.9064 8.19382C32.8884 7.50353 32.835 6.81463 32.7464 6.12982C32.6269 5.53002 32.4278 4.94887 32.1544 4.40182C31.8684 3.80839 31.4843 3.26746 31.0184 2.80182C30.5481 2.34135 30.0081 1.95796 29.4184 1.66582C28.8706 1.39773 28.2895 1.20402 27.6904 1.08982C27.0121 0.988217 26.3281 0.929435 25.6424 0.913818H8.18637C7.49609 0.931797 6.80718 0.9852 6.12237 1.07382C5.52257 1.19329 4.94143 1.39238 4.39437 1.66582C3.80094 1.9518 3.26001 2.33585 2.79437 2.80182C2.3339 3.27208 1.95052 3.81205 1.65837 4.40182C1.39028 4.9496 1.19657 5.53074 1.08237 6.12982C0.980771 6.80811 0.921988 7.49213 0.906372 8.17782C0.906372 8.48182 0.906372 8.91382 0.906372 9.04182V24.7858C0.906372 24.9618 0.906372 25.3458 0.906372 25.6338C0.92435 26.3241 0.977754 27.013 1.06637 27.6978C1.18584 28.2976 1.38494 28.8788 1.65837 29.4258C1.94435 30.0193 2.32841 30.5602 2.79437 31.0258C3.26463 31.4863 3.8046 31.8697 4.39437 32.1618C4.94215 32.4299 5.52329 32.6236 6.12237 32.7378C6.80067 32.8394 7.48469 32.8982 8.17037 32.9138H25.6264C26.3167 32.8958 27.0056 32.8424 27.6904 32.7538C28.2902 32.6343 28.8713 32.4353 29.4184 32.1618C30.0118 31.8758 30.5527 31.4918 31.0184 31.0258C31.4788 30.5556 31.8622 30.0156 32.1544 29.4258C32.4225 28.878 32.6162 28.2969 32.7304 27.6978C32.832 27.0195 32.8908 26.3355 32.9064 25.6498C32.9064 25.3458 32.9064 24.9618 32.9064 24.7858V9.04182C32.9064 8.91382 32.9064 8.48182 32.9064 8.19382ZM17.2744 28.1138C15.3529 28.1043 13.465 27.609 11.7864 26.6738L5.70637 28.2738L7.30637 22.3218C6.27455 20.5881 5.72235 18.6113 5.70637 16.5938C5.71274 14.3265 6.3899 12.1118 7.65255 10.2286C8.9152 8.34534 10.7069 6.87787 12.8019 6.01096C14.897 5.14406 17.2017 4.91649 19.4259 5.35692C21.65 5.79735 23.6941 6.88608 25.3007 8.48598C26.9072 10.0859 28.0045 12.1254 28.4541 14.3477C28.9038 16.57 28.6858 18.8757 27.8276 20.9743C26.9694 23.073 25.5094 24.8707 23.6315 26.1412C21.7535 27.4117 19.5416 28.098 17.2744 28.1138V28.1138ZM17.2744 7.10582C15.5781 7.12523 13.9172 7.59379 12.4609 8.4638C11.0045 9.33381 9.80474 10.5742 8.98365 12.0587C8.16256 13.5431 7.74949 15.2187 7.78651 16.9147C7.82352 18.6107 8.3093 20.2666 9.19437 21.7138L9.41837 22.0818L8.45837 25.5858L12.1064 24.5938L12.4584 24.8018C13.9137 25.659 15.5694 26.1171 17.2584 26.1298V26.1298C19.8045 26.1298 22.2462 25.1184 24.0466 23.318C25.8469 21.5177 26.8584 19.0759 26.8584 16.5298C26.8584 13.9837 25.8469 11.5419 24.0466 9.74159C22.2462 7.94124 19.8045 6.92982 17.2584 6.92982L17.2744 7.10582ZM22.8744 20.7378C22.6648 21.0874 22.3842 21.389 22.0507 21.6233C21.7172 21.8576 21.3383 22.0192 20.9384 22.0978C20.3408 22.207 19.7257 22.1686 19.1464 21.9858C18.6013 21.8154 18.067 21.6124 17.5464 21.3778C15.5684 20.3853 13.8815 18.8969 12.6504 17.0578C11.9814 16.2058 11.5755 15.1771 11.4824 14.0978C11.4728 13.6495 11.5577 13.2041 11.7313 12.7907C11.905 12.3772 12.1636 12.0049 12.4904 11.6978C12.5866 11.5887 12.7047 11.501 12.837 11.4403C12.9693 11.3797 13.1129 11.3475 13.2584 11.3458H13.7064C13.8824 11.3458 14.1224 11.3458 14.3464 11.8418C14.5704 12.3378 15.1624 13.8258 15.2424 13.9698C15.2817 14.0466 15.3022 14.1316 15.3022 14.2178C15.3022 14.3041 15.2817 14.3891 15.2424 14.4658C15.1716 14.6397 15.0745 14.8016 14.9544 14.9458C14.8104 15.1218 14.6504 15.3298 14.5224 15.4578C14.3944 15.5858 14.2344 15.7458 14.3944 16.0338C14.8297 16.7685 15.3686 17.4367 15.9944 18.0178C16.6759 18.62 17.455 19.1016 18.2984 19.4418C18.5864 19.5858 18.7624 19.5698 18.9224 19.4418C19.0824 19.3138 19.6424 18.6098 19.8344 18.3218C20.0264 18.0338 20.2184 18.0818 20.4744 18.1778C20.7304 18.2738 22.1544 18.9618 22.4424 19.1058C22.7304 19.2498 22.9064 19.3138 22.9864 19.4418C23.0558 19.8606 23.0172 20.2901 22.8744 20.6898V20.7378Z" fill="#B3C8DD"/>
</svg>
